# Blender 3.3.0
# www.blender.org
o satellite
v 0.383092 0.856619 -0.383092
v 0.383092 -0.856619 -0.383092
v 0.383092 0.856619 0.383092
v 0.383092 -0.856619 0.383092
v -0.383092 0.856619 -0.383092
v -0.383092 -0.856619 -0.383092
v -0.383092 0.856619 0.383092
v -0.383092 -0.856619 0.383092
v -0.447214 -1.000000 -0.149071
v -0.447214 -1.000000 0.149071
v 0.149071 -1.000000 -0.447214
v -0.149071 -1.000000 -0.447214
v 0.383092 0.285540 -0.383092
v 0.383092 -0.285540 -0.383092
v -0.383092 -0.285540 0.383092
v -0.383092 0.285540 0.383092
v 0.383092 0.285540 0.383092
v 0.383092 -0.285540 0.383092
v -0.383092 0.285540 -0.383092
v -0.383092 -0.285540 -0.383092
v 0.149071 1.000000 0.447214
v -0.149071 1.000000 0.447214
v 0.447214 1.000000 -0.149071
v 0.447214 1.000000 0.149071
v -0.149071 -1.000000 0.447214
v 0.149071 -1.000000 0.447214
v -0.447214 1.000000 0.149071
v -0.447214 1.000000 -0.149071
v -0.149071 1.000000 -0.447214
v 0.149071 1.000000 -0.447214
v 0.447214 -1.000000 0.149071
v 0.447214 -1.000000 -0.149071
v -0.149071 -0.333333 -0.447214
v 0.149071 -0.333333 -0.447214
v -0.149071 0.333333 -0.447214
v 0.149071 0.333333 -0.447214
v 0.447214 -0.333333 -0.149071
v 0.447214 -0.333333 0.149071
v 0.447214 0.333333 -0.149071
v 0.447214 0.333333 0.149071
v -0.149071 -1.000000 -0.149071
v -0.149071 -1.000000 0.149071
v 0.149071 -1.000000 -0.149071
v 0.149071 -1.000000 0.149071
v -0.447214 -0.333333 0.149071
v -0.447214 -0.333333 -0.149071
v -0.447214 0.333333 0.149071
v -0.447214 0.333333 -0.149071
v 0.149071 -0.333333 0.447214
v -0.149071 -0.333333 0.447214
v 0.149071 0.333333 0.447214
v -0.149071 0.333333 0.447214
v 0.297437 1.000000 -0.297437
v 0.297437 1.000000 0.297437
v -0.297437 1.000000 -0.297437
v -0.297437 1.000000 0.297437
v 0.547214 -0.333333 -0.046404
v 0.547214 -0.333333 0.046404
v 0.547214 0.333333 -0.046404
v 0.547214 0.333333 0.046404
v 1.547214 -0.333333 -0.046404
v 1.547214 -0.333333 0.046404
v 1.547214 0.333333 -0.046404
v 1.547214 0.333333 0.046404
v -0.547214 -0.333333 0.046404
v -0.547214 -0.333333 -0.046404
v -0.547214 0.333333 0.046404
v -0.547214 0.333333 -0.046404
v -1.547214 -0.333333 0.046404
v -1.547214 -0.333333 -0.046404
v -1.547214 0.333333 0.046404
v -1.547214 0.333333 -0.046404
v 0.547214 1.333333 -0.046404
v 0.547214 1.333333 0.046404
v 1.547214 1.333333 -0.046404
v 1.547214 1.333333 0.046404
v -0.547214 1.333333 0.046404
v -0.547214 1.333333 -0.046404
v -1.547214 1.333333 0.046404
v -1.547214 1.333333 -0.046404
v 0.547214 -1.333333 -0.046404
v 0.547214 -1.333333 0.046404
v 1.547214 -1.333333 -0.046404
v 1.547214 -1.333333 0.046404
v -0.547214 -1.333333 0.046404
v -0.547214 -1.333333 -0.046404
v -1.547214 -1.333333 0.046404
v -1.547214 -1.333333 -0.046404
v 0.384225 1.000000 -0.128075
v 0.384225 1.000000 0.128075
v -0.384225 1.000000 -0.128075
v -0.384225 1.000000 0.128075
v -0.128075 1.000000 -0.384225
v 0.128075 1.000000 -0.384225
v -0.128075 1.000000 0.384225
v 0.128075 1.000000 0.384225
v 0.384225 1.138276 0.128075
v 0.297437 1.138276 0.297437
v -0.384225 1.138276 0.128075
v -0.297437 1.138276 0.297437
v 0.128075 1.138276 -0.384225
v 0.297437 1.138276 -0.297437
v 0.128075 1.138276 0.384225
v 0.384225 1.138276 -0.128075
v -0.297437 1.138276 -0.297437
v -0.384225 1.138276 -0.128075
v -0.128075 1.138276 -0.384225
v -0.128075 1.138276 0.384225
v 0.128075 1.138276 0.128075
v 0.128075 1.138276 -0.128075
v -0.128075 1.138276 0.128075
v -0.128075 1.138276 -0.128075
vn -0.5427 0.6454 0.5376
vn -0.2643 -0.0000 0.9645
vn -0.9645 -0.0000 -0.2643
vn 0.5224 -0.8527 -0.0000
vn 0.9645 -0.0000 0.2643
vn 0.2643 -0.0000 -0.9645
vn -0.2643 -0.0000 -0.9645
vn -0.0000 -0.0000 -1.0000
vn 0.9645 -0.0000 -0.2643
vn 1.0000 -0.0000 -0.0000
vn 0.7164 -0.0000 -0.6977
vn -0.0000 -0.8527 0.5224
vn -0.0000 -1.0000 -0.0000
vn -0.0000 -0.8527 -0.5224
vn -0.9645 -0.0000 0.2643
vn -1.0000 -0.0000 -0.0000
vn -0.7164 -0.0000 0.6977
vn 0.2643 -0.0000 0.9645
vn -0.0000 -0.0000 1.0000
vn 0.5376 0.6454 0.5427
vn -0.0000 1.0000 -0.0000
vn 0.5376 0.6454 -0.5427
vn 0.8900 -0.0000 -0.4561
vn -0.5427 0.6454 -0.5376
vn 0.7164 -0.0000 0.6977
vn -0.7164 -0.0000 -0.6977
vn 0.4560 -0.0000 -0.8900
vn -0.4560 -0.0000 0.8900
vn -0.8900 -0.0000 -0.4561
vn 0.4560 -0.0000 0.8900
vn 0.8900 -0.0000 0.4561
vn -0.8900 -0.0000 0.4561
vn -0.4560 -0.0000 -0.8900
vn -0.5376 0.6454 0.5427
vn -0.5224 -0.8527 -0.0000
vn 0.5427 0.6454 0.5376
vn 0.5427 0.6454 -0.5376
vn 0.8900 -0.0000 -0.4560
vn -0.5376 0.6454 -0.5427
vn -0.4561 -0.0000 0.8900
vn -0.8900 -0.0000 -0.4560
vn 0.4561 -0.0000 0.8900
vn 0.8900 -0.0000 0.4560
vn -0.8900 -0.0000 0.4560
vn -0.4561 -0.0000 -0.8900
vt 0.546019 0.244187
vt 0.244187 0.895352
vt 0.546019 0.732561
vt 0.546019 0.000000
vt 0.244187 0.651165
vt 0.488374 0.651165
vt 0.000000 0.895352
vt 0.790206 0.732561
vt 0.546019 0.976748
vt 0.488374 0.895352
vt 0.000000 0.651165
vt 0.790206 0.488374
vt 0.546019 0.488374
vt 0.790206 0.244187
vt 0.790206 0.732561
vt 0.790206 0.000000
vt 0.244187 0.651165
vt 0.546019 0.244187
vt 0.790206 0.976748
vt 0.546019 0.732561
vt 0.790206 0.488374
vt 0.244187 0.895352
vt 0.790206 0.244187
vt 0.546019 0.488374
vt 0.244187 0.732561
vt 0.627415 0.244187
vt 0.708810 0.244187
vt 0.244187 0.813957
vt 0.627415 0.000000
vt 0.406978 0.651165
vt 0.708810 0.000000
vt 0.325583 0.651165
vt 0.546019 0.162791
vt 0.244187 0.813957
vt 0.546019 0.081396
vt 0.244187 0.732561
vt 0.790206 0.325583
vt 0.546019 0.569770
vt 0.790206 0.406978
vt 0.546019 0.651165
vt 0.000000 0.813957
vt 0.790206 0.651165
vt 0.000000 0.732561
vt 0.790206 0.569770
vt 0.790206 0.162791
vt 0.546019 0.406978
vt 0.790206 0.081396
vt 0.546019 0.325583
vt 0.708810 0.732561
vt 0.627415 0.976748
vt 0.627415 0.732561
vt 0.708810 0.976748
vt 0.162791 0.895352
vt 0.546019 0.813957
vt 0.081396 0.895352
vt 0.546019 0.895352
vt 0.325583 0.895352
vt 0.627415 0.488374
vt 0.708810 0.488374
vt 0.406978 0.895352
vt 0.708810 0.488374
vt 0.790206 0.895352
vt 0.627415 0.488374
vt 0.790206 0.813957
vt 0.708810 0.244187
vt 0.708810 0.732561
vt 0.627415 0.244187
vt 0.627415 0.732561
vt 0.081396 0.651165
vt 0.488374 0.813957
vt 0.162791 0.651165
vt 0.488374 0.732561
vt 0.708810 0.081396
vt 0.627415 0.081396
vt 0.708810 0.162791
vt 0.627415 0.162791
vt 0.162791 0.732561
vt 0.542976 0.854655
vt 0.542976 0.773259
vt 0.081396 0.732561
vt 0.515675 0.773259
vt 0.162791 0.813957
vt 0.081396 0.813957
vt 0.515675 0.854654
vt 0.325583 0.732561
vt 0.325583 0.813957
vt 0.406978 0.732561
vt 0.406978 0.813957
vt 0.708810 0.325583
vt 0.817507 0.889782
vt 0.817507 0.808386
vt 0.627415 0.325583
vt 0.893518 0.819106
vt 0.708810 0.406978
vt 0.627415 0.406978
vt 0.893518 0.900502
vt 0.708810 0.569770
vt 0.627415 0.569770
vt 0.708810 0.651165
vt 0.627415 0.651165
vt 0.883100 0.494294
vt 0.586909 0.773451
vt 0.899983 0.494294
vt 0.899983 0.331888
vt 0.586909 0.935858
vt 0.883100 0.494294
vt 0.749316 0.773451
vt 0.883100 0.656700
vt 0.883100 0.331888
vt 0.749316 0.935858
vt 0.883100 0.819106
vt 0.273010 0.122094
vt 0.134762 0.732561
vt 0.515675 0.826625
vt 0.840880 0.877907
vt 0.866218 0.877907
vt 0.515675 0.801288
vt 0.109425 0.732561
vt 0.273009 0.122093
vt 0.866218 0.209794
vt 0.134762 0.813957
vt 0.488374 0.801288
vt 0.273010 0.203489
vt 0.273009 0.203489
vt 0.109425 0.813957
vt 0.488374 0.826625
vt 0.891555 0.209794
vt 0.840880 0.331888
vt 0.000000 0.122093
vt 0.546019 0.122094
vt 0.815543 0.331888
vt 0.840880 0.413283
vt 0.000000 0.203489
vt 0.815543 0.413283
vt 0.546019 0.203489
vt 0.546019 0.447676
vt 0.680781 0.325583
vt 0.488374 0.773259
vt 0.790206 0.861753
vt 0.513711 0.773259
vt 0.790206 0.836416
vt 0.655444 0.325583
vt 0.000000 0.447676
vt 0.513711 0.651165
vt 0.680781 0.406978
vt 0.866217 0.847136
vt 0.546019 0.529072
vt 0.000000 0.529072
vt 0.655444 0.406978
vt 0.866217 0.872473
vt 0.539048 0.651165
vt 0.815543 0.331888
vt 0.273010 0.447676
vt 0.273009 0.447676
vt 0.790206 0.331888
vt 0.273010 0.529072
vt 0.815543 0.413283
vt 0.790206 0.413283
vt 0.273009 0.529072
vt 0.815543 0.808386
vt 0.273009 0.325583
vt 0.866218 0.331888
vt 0.790206 0.808386
vt 0.891555 0.331888
vt 0.273009 0.325583
vt 0.840880 0.535377
vt 0.815543 0.535377
vt 0.000000 0.325583
vt 0.815543 0.535377
vt 0.790206 0.535377
vt 0.546019 0.325583
vt 0.840880 0.482804
vt 0.546019 0.651165
vt 0.513711 0.773259
vt 0.000000 0.651165
vt 0.866218 0.482804
vt 0.539048 0.773259
vt 0.840880 0.755813
vt 0.815543 0.535377
vt 0.273010 0.651165
vt 0.273009 0.651165
vt 0.866218 0.755813
vt 0.790206 0.535377
vt 0.866218 0.209794
vt 0.273010 0.000000
vt 0.840880 0.755813
vt 0.840880 0.209794
vt 0.273009 0.000000
vt 0.866218 0.755813
vt 0.866218 0.482804
vt 0.840880 0.209794
vt 0.000000 0.000000
vt 0.840880 0.482804
vt 0.546019 0.000000
vt 0.815543 0.209794
vt 0.488374 0.651165
vt 0.546019 0.325583
vt 0.815543 0.808386
vt 0.840880 0.808386
vt 0.513711 0.651165
vt 0.000000 0.325583
vt 0.273010 0.325583
vt 0.815543 0.535377
vt 0.815543 0.209794
vt 0.840880 0.535377
vt 0.273009 0.325583
vt 0.790206 0.209794
vt 0.563215 0.819689
vt 0.899983 0.448057
vt 0.563215 0.889620
vt 0.899983 0.378125
vt 0.773010 0.819689
vt 0.883100 0.702938
vt 0.773010 0.889620
vt 0.883100 0.772869
vt 0.703078 0.749757
vt 0.883100 0.610463
vt 0.633147 0.749757
vt 0.883100 0.540531
vt 0.703078 0.959552
vt 0.883100 0.378125
vt 0.633147 0.959552
vt 0.883100 0.448057
vt 0.883100 0.378125
vt 0.930069 0.209794
vt 0.866217 0.494294
vt 0.883100 0.331888
vt 0.976306 0.186100
vt 0.930069 0.000000
vt 0.866217 0.772869
vt 0.866217 0.331888
vt 0.976306 0.023694
vt 0.866217 0.819106
vt 0.866217 0.540531
vt 0.790206 0.139863
vt 0.883100 0.494294
vt 0.866217 0.494294
vt 0.813900 0.186100
vt 1.000000 0.139863
vt 0.866217 0.448057
vt 0.860137 0.209794
vt 0.883100 0.448057
vt 0.813900 0.023694
vt 0.866217 0.656700
vt 0.866217 0.702938
vt 0.860137 0.000000
vt 0.790206 0.069931
vt 0.866217 0.610463
vt 1.000000 0.069931
vt 0.866217 0.378125
vt 0.930069 0.139863
vt 0.860137 0.139863
vt 0.930069 0.069931
vt 0.860137 0.069931
s 0
f 56/110/1 7/19/1 22/52/1
f 52/100/2 7/20/2 16/40/2
f 48/95/3 5/13/3 19/46/3
f 44/88/4 4/10/4 26/60/4
f 40/83/5 3/7/5 17/41/5
f 36/76/6 1/1/6 13/33/6
f 34/74/6 2/4/6 11/29/6
f 36/76/6 14/35/6 34/74/6
f 6/16/7 33/73/7 12/31/7
f 33/73/8 11/29/8 12/31/8
f 19/45/7 33/73/7 20/47/7
f 35/75/8 34/74/8 33/73/8
f 5/14/7 35/75/7 19/45/7
f 29/65/8 36/76/8 35/75/8
f 38/80/5 4/11/5 31/69/5
f 40/83/5 18/43/5 38/80/5
f 2/5/9 37/77/9 32/71/9
f 37/77/10 31/69/10 32/71/10
f 13/34/9 37/77/9 14/36/9
f 39/82/11 57/113/11 37/77/11
f 1/2/9 39/82/9 13/34/9
f 23/53/10 40/83/10 39/82/10
f 42/86/12 8/22/12 10/28/12
f 44/88/13 25/57/13 42/86/13
f 6/17/14 41/85/14 9/25/14
f 41/85/13 10/28/13 9/25/13
f 11/30/13 41/85/13 12/32/13
f 43/87/13 42/86/13 41/85/13
f 2/6/4 43/87/4 11/30/4
f 32/72/13 44/88/13 43/87/13
f 46/92/3 6/18/3 9/26/3
f 48/95/3 20/48/3 46/92/3
f 8/23/15 45/89/15 10/27/15
f 45/89/16 9/26/16 10/27/16
f 16/39/15 45/89/15 15/37/15
f 47/94/17 65/137/17 45/89/17
f 7/21/15 47/94/15 16/39/15
f 27/61/16 48/95/16 47/94/16
f 50/98/2 8/24/2 25/58/2
f 52/100/2 15/38/2 50/98/2
f 4/12/18 49/97/18 26/59/18
f 49/97/19 25/58/19 26/59/19
f 17/42/18 49/97/18 18/44/18
f 51/99/19 50/98/19 49/97/19
f 3/8/18 51/99/18 17/42/18
f 21/49/19 52/100/19 51/99/19
f 54/105/20 3/9/20 24/56/20
f 95/220/21 22/52/21 21/50/21
f 1/3/22 53/102/22 23/54/22
f 23/54/21 90/210/21 24/56/21
f 30/68/21 29/66/21 94/218/21
f 53/103/23 104/242/23 89/209/23
f 5/15/24 55/107/24 29/66/24
f 28/64/21 27/62/21 92/214/21
f 58/119/19 64/135/19 60/124/19
f 37/78/13 58/117/13 38/79/13
f 38/80/25 60/125/25 40/83/25
f 40/84/21 59/122/21 39/81/21
f 63/132/10 62/131/10 61/128/10
f 63/132/10 76/169/10 64/134/10
f 59/123/8 61/129/8 57/112/8
f 65/138/10 86/200/10 66/140/10
f 67/147/19 69/153/19 65/136/19
f 45/90/13 66/141/13 46/91/13
f 46/92/26 68/149/26 48/95/26
f 48/96/21 67/146/21 47/93/21
f 71/157/16 70/155/16 69/152/16
f 69/153/19 85/197/19 65/136/19
f 66/143/8 72/159/8 68/148/8
f 72/159/8 78/175/8 68/148/8
f 74/163/21 75/167/21 73/160/21
f 78/176/21 79/178/21 77/172/21
f 71/157/16 80/183/16 72/158/16
f 59/123/8 75/168/8 63/133/8
f 60/127/16 73/162/16 59/120/16
f 67/147/19 79/180/19 71/156/19
f 68/151/10 77/174/10 67/144/10
f 64/135/19 74/165/19 60/124/19
f 81/184/13 84/193/13 82/187/13
f 85/198/13 88/205/13 86/199/13
f 58/119/19 84/194/19 62/130/19
f 66/143/8 88/206/8 70/154/8
f 62/131/10 83/191/10 61/128/10
f 61/129/8 81/185/8 57/112/8
f 70/155/16 87/204/16 69/152/16
f 57/115/16 82/189/16 58/116/16
f 94/219/27 102/237/27 53/101/27
f 92/215/16 106/245/16 91/213/16
f 95/221/28 100/231/28 56/109/28
f 91/213/29 105/244/29 55/108/29
f 93/217/8 101/234/8 94/219/8
f 89/209/10 97/224/10 90/211/10
f 54/106/30 103/240/30 96/223/30
f 90/211/31 98/227/31 54/104/31
f 111/253/21 100/232/21 108/249/21
f 109/251/21 98/228/21 97/225/21
f 111/253/21 103/239/21 109/251/21
f 102/238/21 110/252/21 104/241/21
f 110/252/21 97/225/21 104/241/21
f 107/247/21 110/252/21 101/235/21
f 112/254/21 109/251/21 110/252/21
f 105/243/21 112/254/21 107/247/21
f 106/246/21 111/253/21 112/254/21
f 96/223/19 108/250/19 95/221/19
f 56/111/32 99/230/32 92/215/32
f 55/108/33 107/248/33 93/217/33
f 56/110/34 27/62/34 7/19/34
f 52/100/2 22/51/2 7/20/2
f 48/95/3 28/63/3 5/13/3
f 44/88/12 31/70/12 4/10/12
f 40/83/5 24/55/5 3/7/5
f 36/76/6 30/67/6 1/1/6
f 34/74/6 14/35/6 2/4/6
f 36/76/6 13/33/6 14/35/6
f 6/16/7 20/47/7 33/73/7
f 33/73/8 34/74/8 11/29/8
f 19/45/7 35/75/7 33/73/7
f 35/75/8 36/76/8 34/74/8
f 5/14/7 29/65/7 35/75/7
f 29/65/8 30/67/8 36/76/8
f 38/80/5 18/43/5 4/11/5
f 40/83/5 17/41/5 18/43/5
f 2/5/9 14/36/9 37/77/9
f 37/77/10 38/80/10 31/69/10
f 13/34/9 39/82/9 37/77/9
f 39/82/11 59/121/11 57/113/11
f 1/2/9 23/53/9 39/82/9
f 23/53/10 24/55/10 40/83/10
f 42/86/35 25/57/35 8/22/35
f 44/88/13 26/60/13 25/57/13
f 6/17/35 12/32/35 41/85/35
f 41/85/13 42/86/13 10/28/13
f 11/30/13 43/87/13 41/85/13
f 43/87/13 44/88/13 42/86/13
f 2/6/14 32/72/14 43/87/14
f 32/72/13 31/70/13 44/88/13
f 46/92/3 20/48/3 6/18/3
f 48/95/3 19/46/3 20/48/3
f 8/23/15 15/37/15 45/89/15
f 45/89/16 46/92/16 9/26/16
f 16/39/15 47/94/15 45/89/15
f 47/94/17 67/145/17 65/137/17
f 7/21/15 27/61/15 47/94/15
f 27/61/16 28/63/16 48/95/16
f 50/98/2 15/38/2 8/24/2
f 52/100/2 16/40/2 15/38/2
f 4/12/18 18/44/18 49/97/18
f 49/97/19 50/98/19 25/58/19
f 17/42/18 51/99/18 49/97/18
f 51/99/19 52/100/19 50/98/19
f 3/8/18 21/49/18 51/99/18
f 21/49/19 22/51/19 52/100/19
f 54/105/36 21/50/36 3/9/36
f 21/50/21 54/105/21 96/222/21
f 95/220/21 56/110/21 22/52/21
f 21/50/21 96/222/21 95/220/21
f 1/3/37 30/68/37 53/102/37
f 23/54/21 53/102/21 89/208/21
f 90/210/21 54/105/21 24/56/21
f 23/54/21 89/208/21 90/210/21
f 29/66/21 55/107/21 93/216/21
f 94/218/21 53/102/21 30/68/21
f 29/66/21 93/216/21 94/218/21
f 53/103/38 102/236/38 104/242/38
f 5/15/39 28/64/39 55/107/39
f 91/212/21 55/107/21 28/64/21
f 27/62/21 56/110/21 92/214/21
f 92/214/21 91/212/21 28/64/21
f 58/119/19 62/130/19 64/135/19
f 37/78/13 57/114/13 58/117/13
f 38/80/25 58/118/25 60/125/25
f 40/84/21 60/126/21 59/122/21
f 63/132/10 64/134/10 62/131/10
f 63/132/10 75/166/10 76/169/10
f 59/123/8 63/133/8 61/129/8
f 65/138/10 85/196/10 86/200/10
f 67/147/19 71/156/19 69/153/19
f 45/90/13 65/139/13 66/141/13
f 46/92/26 66/142/26 68/149/26
f 48/96/21 68/150/21 67/146/21
f 71/157/16 72/158/16 70/155/16
f 69/153/19 87/202/19 85/197/19
f 66/143/8 70/154/8 72/159/8
f 72/159/8 80/181/8 78/175/8
f 74/163/21 76/170/21 75/167/21
f 78/176/21 80/182/21 79/178/21
f 71/157/16 79/179/16 80/183/16
f 59/123/8 73/161/8 75/168/8
f 60/127/16 74/164/16 73/162/16
f 67/147/19 77/173/19 79/180/19
f 68/151/10 78/177/10 77/174/10
f 64/135/19 76/171/19 74/165/19
f 81/184/13 83/190/13 84/193/13
f 85/198/13 87/203/13 88/205/13
f 58/119/19 82/188/19 84/194/19
f 66/143/8 86/201/8 88/206/8
f 62/131/10 84/195/10 83/191/10
f 61/129/8 83/192/8 81/185/8
f 70/155/16 88/207/16 87/204/16
f 57/115/16 81/186/16 82/189/16
f 94/219/27 101/234/27 102/237/27
f 92/215/16 99/230/16 106/245/16
f 95/221/40 108/250/40 100/231/40
f 91/213/41 106/245/41 105/244/41
f 93/217/8 107/248/8 101/234/8
f 89/209/10 104/242/10 97/224/10
f 54/106/42 98/226/42 103/240/42
f 90/211/43 97/224/43 98/227/43
f 111/253/21 99/229/21 100/232/21
f 109/251/21 103/239/21 98/228/21
f 111/253/21 108/249/21 103/239/21
f 102/238/21 101/235/21 110/252/21
f 110/252/21 109/251/21 97/225/21
f 107/247/21 112/254/21 110/252/21
f 112/254/21 111/253/21 109/251/21
f 105/243/21 106/246/21 112/254/21
f 106/246/21 99/229/21 111/253/21
f 96/223/19 103/240/19 108/250/19
f 56/111/44 100/233/44 99/230/44
f 55/108/45 105/244/45 107/248/45
