# Blender 3.1.0
# www.blender.org
o pyramid
v -0.353553 -0.500000 -0.353553
v 0.353553 -0.500000 -0.353553
v 0.353553 -0.500000 0.353553
v -0.353553 -0.500000 0.353553
v 0.000000 0.500000 0.000000
vn -0.0000 0.1667 -0.4714
vn 0.4714 0.1667 -0.0000
vn -0.0000 -0.5000 -0.0000
vn -0.0000 0.1667 0.4714
vn -0.4714 0.1667 -0.0000
vt 0.333333 0.500000
vt 0.333333 0.833333
vt 0.333333 1.000000
vt 0.666667 0.500000
vt 0.333333 0.500000
vt 1.000000 0.500000
vt 0.000000 0.500000
vt 0.666667 0.500000
vt 0.333333 0.500000
vt 0.000000 1.000000
vt 0.666667 0.833333
vt 0.500000 0.000000
vt 0.833333 0.000000
vt 0.166667 0.000000
vt 0.166667 0.500000
s 0
f 1/1/1 5/12/1 2/4/1
f 2/4/2 5/13/2 3/6/2
f 2/5/3 4/11/3 1/2/3
f 3/7/4 5/14/4 4/9/4
f 4/10/5 5/15/5 1/3/5
f 2/5/3 3/8/3 4/11/3
